<mxfile host="app.diagrams.net" modified="2022-01-06T05:35:53.224Z" agent="5.0 (Windows NT 10.0; Win64; x64) AppleWebKit/537.36 (KHTML, like Gecko) Chrome/96.0.4664.110 Safari/537.36" etag="xQKC-SC9SSG56y9cqIF3" version="16.2.2" type="github">
  <diagram id="C5RBs43oDa-KdzZeNtuy" name="Page-1">
    <mxGraphModel dx="1384" dy="762" grid="1" gridSize="10" guides="1" tooltips="1" connect="1" arrows="1" fold="1" page="1" pageScale="1" pageWidth="827" pageHeight="1169" math="0" shadow="0">
      <root>
        <mxCell id="WIyWlLk6GJQsqaUBKTNV-0" />
        <mxCell id="WIyWlLk6GJQsqaUBKTNV-1" parent="WIyWlLk6GJQsqaUBKTNV-0" />
        <mxCell id="WIyWlLk6GJQsqaUBKTNV-2" value="" style="rounded=0;html=1;jettySize=auto;orthogonalLoop=1;fontSize=11;endArrow=block;endFill=0;endSize=8;strokeWidth=1;shadow=0;labelBackgroundColor=none;edgeStyle=orthogonalEdgeStyle;startArrow=none;" parent="WIyWlLk6GJQsqaUBKTNV-1" source="aTNGRoRgPxpWAhBZ2Oct-76" target="WIyWlLk6GJQsqaUBKTNV-6" edge="1">
          <mxGeometry relative="1" as="geometry" />
        </mxCell>
        <mxCell id="aTNGRoRgPxpWAhBZ2Oct-111" value="" style="edgeStyle=orthogonalEdgeStyle;rounded=0;orthogonalLoop=1;jettySize=auto;html=1;endArrow=block;endFill=0;endSize=8;" edge="1" parent="WIyWlLk6GJQsqaUBKTNV-1" source="WIyWlLk6GJQsqaUBKTNV-3" target="aTNGRoRgPxpWAhBZ2Oct-76">
          <mxGeometry relative="1" as="geometry" />
        </mxCell>
        <mxCell id="WIyWlLk6GJQsqaUBKTNV-3" value="사용자 기기 날짜로 DB 생성" style="rounded=1;whiteSpace=wrap;html=1;fontSize=12;glass=0;strokeWidth=1;shadow=0;" parent="WIyWlLk6GJQsqaUBKTNV-1" vertex="1">
          <mxGeometry x="460" y="10" width="120" height="50" as="geometry" />
        </mxCell>
        <mxCell id="aTNGRoRgPxpWAhBZ2Oct-69" value="No" style="edgeStyle=orthogonalEdgeStyle;rounded=0;orthogonalLoop=1;jettySize=auto;html=1;endArrow=block;endFill=0;endSize=8;" edge="1" parent="WIyWlLk6GJQsqaUBKTNV-1" source="WIyWlLk6GJQsqaUBKTNV-6" target="aTNGRoRgPxpWAhBZ2Oct-68">
          <mxGeometry y="10" relative="1" as="geometry">
            <mxPoint as="offset" />
          </mxGeometry>
        </mxCell>
        <mxCell id="aTNGRoRgPxpWAhBZ2Oct-78" style="edgeStyle=orthogonalEdgeStyle;rounded=0;orthogonalLoop=1;jettySize=auto;html=1;exitX=0.5;exitY=0;exitDx=0;exitDy=0;endArrow=block;endFill=0;endSize=8;" edge="1" parent="WIyWlLk6GJQsqaUBKTNV-1" source="WIyWlLk6GJQsqaUBKTNV-6">
          <mxGeometry relative="1" as="geometry">
            <mxPoint x="520" y="230" as="targetPoint" />
          </mxGeometry>
        </mxCell>
        <mxCell id="aTNGRoRgPxpWAhBZ2Oct-102" value="Yes" style="edgeStyle=orthogonalEdgeStyle;rounded=0;orthogonalLoop=1;jettySize=auto;html=1;endArrow=block;endFill=0;endSize=8;entryX=1;entryY=0.5;entryDx=0;entryDy=0;" edge="1" parent="WIyWlLk6GJQsqaUBKTNV-1" source="WIyWlLk6GJQsqaUBKTNV-6" target="aTNGRoRgPxpWAhBZ2Oct-98">
          <mxGeometry x="-0.0435" relative="1" as="geometry">
            <mxPoint x="340" y="270" as="targetPoint" />
            <Array as="points">
              <mxPoint x="790" y="270" />
              <mxPoint x="790" y="1060" />
            </Array>
            <mxPoint as="offset" />
          </mxGeometry>
        </mxCell>
        <mxCell id="WIyWlLk6GJQsqaUBKTNV-6" value="날짜 DB가 비어있는가?" style="rhombus;whiteSpace=wrap;html=1;shadow=0;fontFamily=Helvetica;fontSize=12;align=center;strokeWidth=1;spacing=6;spacingTop=-4;" parent="WIyWlLk6GJQsqaUBKTNV-1" vertex="1">
          <mxGeometry x="420" y="230" width="200" height="80" as="geometry" />
        </mxCell>
        <mxCell id="aTNGRoRgPxpWAhBZ2Oct-2" value="&lt;h2&gt;&lt;b&gt;Description&lt;/b&gt;&lt;/h2&gt;&lt;div&gt;C_Location = 사용자 현재 위치&lt;/div&gt;&lt;div&gt;tmp_Location = 사용자 마지막 위치&lt;/div&gt;&lt;div&gt;DB_Location = 데이터베이스에 마지막에 저장된 사용자 위치&lt;/div&gt;&lt;div&gt;&lt;br&gt;&lt;/div&gt;" style="rounded=0;whiteSpace=wrap;html=1;align=left;" vertex="1" parent="WIyWlLk6GJQsqaUBKTNV-1">
          <mxGeometry x="20" y="20" width="330" height="110" as="geometry" />
        </mxCell>
        <mxCell id="aTNGRoRgPxpWAhBZ2Oct-109" value="" style="edgeStyle=orthogonalEdgeStyle;rounded=0;orthogonalLoop=1;jettySize=auto;html=1;endArrow=block;endFill=0;endSize=8;entryX=0;entryY=0.5;entryDx=0;entryDy=0;exitX=0.5;exitY=1;exitDx=0;exitDy=0;" edge="1" parent="WIyWlLk6GJQsqaUBKTNV-1" source="aTNGRoRgPxpWAhBZ2Oct-64" target="aTNGRoRgPxpWAhBZ2Oct-76">
          <mxGeometry relative="1" as="geometry">
            <mxPoint x="520" y="1250" as="sourcePoint" />
            <mxPoint x="520" y="1320" as="targetPoint" />
            <Array as="points">
              <mxPoint x="520" y="1270" />
              <mxPoint x="310" y="1270" />
              <mxPoint x="310" y="150" />
            </Array>
          </mxGeometry>
        </mxCell>
        <mxCell id="aTNGRoRgPxpWAhBZ2Oct-64" value="tmp_Location = C_Location" style="whiteSpace=wrap;html=1;shadow=0;strokeWidth=1;spacing=6;spacingTop=-4;" vertex="1" parent="WIyWlLk6GJQsqaUBKTNV-1">
          <mxGeometry x="440" y="1180" width="160" height="60" as="geometry" />
        </mxCell>
        <mxCell id="aTNGRoRgPxpWAhBZ2Oct-71" value="" style="edgeStyle=orthogonalEdgeStyle;rounded=0;orthogonalLoop=1;jettySize=auto;html=1;endArrow=block;endFill=0;endSize=8;" edge="1" parent="WIyWlLk6GJQsqaUBKTNV-1" source="aTNGRoRgPxpWAhBZ2Oct-68" target="aTNGRoRgPxpWAhBZ2Oct-70">
          <mxGeometry relative="1" as="geometry" />
        </mxCell>
        <mxCell id="aTNGRoRgPxpWAhBZ2Oct-68" value="C_Location 과 tmp_Location 비교" style="whiteSpace=wrap;html=1;shadow=0;strokeWidth=1;spacing=6;spacingTop=-4;" vertex="1" parent="WIyWlLk6GJQsqaUBKTNV-1">
          <mxGeometry x="460" y="410" width="120" height="60" as="geometry" />
        </mxCell>
        <mxCell id="aTNGRoRgPxpWAhBZ2Oct-88" value="" style="edgeStyle=orthogonalEdgeStyle;rounded=0;orthogonalLoop=1;jettySize=auto;html=1;endArrow=block;endFill=0;endSize=8;" edge="1" parent="WIyWlLk6GJQsqaUBKTNV-1" source="aTNGRoRgPxpWAhBZ2Oct-70" target="aTNGRoRgPxpWAhBZ2Oct-83">
          <mxGeometry relative="1" as="geometry" />
        </mxCell>
        <mxCell id="aTNGRoRgPxpWAhBZ2Oct-94" value="Yes" style="edgeLabel;html=1;align=center;verticalAlign=middle;resizable=0;points=[];" vertex="1" connectable="0" parent="aTNGRoRgPxpWAhBZ2Oct-88">
          <mxGeometry x="-0.2222" relative="1" as="geometry">
            <mxPoint as="offset" />
          </mxGeometry>
        </mxCell>
        <mxCell id="aTNGRoRgPxpWAhBZ2Oct-104" value="" style="edgeStyle=orthogonalEdgeStyle;rounded=0;orthogonalLoop=1;jettySize=auto;html=1;endArrow=block;endFill=0;endSize=8;" edge="1" parent="WIyWlLk6GJQsqaUBKTNV-1" source="aTNGRoRgPxpWAhBZ2Oct-70">
          <mxGeometry relative="1" as="geometry">
            <mxPoint x="440" y="1210" as="targetPoint" />
            <Array as="points">
              <mxPoint x="370" y="600" />
              <mxPoint x="370" y="1210" />
            </Array>
          </mxGeometry>
        </mxCell>
        <mxCell id="aTNGRoRgPxpWAhBZ2Oct-105" value="No" style="edgeLabel;html=1;align=center;verticalAlign=middle;resizable=0;points=[];" vertex="1" connectable="0" parent="aTNGRoRgPxpWAhBZ2Oct-104">
          <mxGeometry x="-0.9412" y="2" relative="1" as="geometry">
            <mxPoint x="-8" y="-2" as="offset" />
          </mxGeometry>
        </mxCell>
        <mxCell id="aTNGRoRgPxpWAhBZ2Oct-70" value="5미터 이내인가?" style="rhombus;whiteSpace=wrap;html=1;shadow=0;strokeWidth=1;spacing=6;spacingTop=-4;" vertex="1" parent="WIyWlLk6GJQsqaUBKTNV-1">
          <mxGeometry x="450" y="560" width="140" height="80" as="geometry" />
        </mxCell>
        <mxCell id="aTNGRoRgPxpWAhBZ2Oct-76" value="C_Location 요청" style="rounded=0;whiteSpace=wrap;html=1;" vertex="1" parent="WIyWlLk6GJQsqaUBKTNV-1">
          <mxGeometry x="460" y="120" width="120" height="60" as="geometry" />
        </mxCell>
        <mxCell id="aTNGRoRgPxpWAhBZ2Oct-90" value="" style="edgeStyle=orthogonalEdgeStyle;rounded=0;orthogonalLoop=1;jettySize=auto;html=1;endArrow=block;endFill=0;endSize=8;" edge="1" parent="WIyWlLk6GJQsqaUBKTNV-1" source="aTNGRoRgPxpWAhBZ2Oct-83" target="aTNGRoRgPxpWAhBZ2Oct-89">
          <mxGeometry relative="1" as="geometry" />
        </mxCell>
        <mxCell id="aTNGRoRgPxpWAhBZ2Oct-83" value="DB_Location 과 C_Location 비교" style="whiteSpace=wrap;html=1;shadow=0;strokeWidth=1;spacing=6;spacingTop=-4;" vertex="1" parent="WIyWlLk6GJQsqaUBKTNV-1">
          <mxGeometry x="460" y="730" width="120" height="60" as="geometry" />
        </mxCell>
        <mxCell id="aTNGRoRgPxpWAhBZ2Oct-92" value="No" style="edgeStyle=orthogonalEdgeStyle;rounded=0;orthogonalLoop=1;jettySize=auto;html=1;endArrow=block;endFill=0;endSize=8;" edge="1" parent="WIyWlLk6GJQsqaUBKTNV-1" source="aTNGRoRgPxpWAhBZ2Oct-89">
          <mxGeometry x="-0.8333" relative="1" as="geometry">
            <mxPoint x="600" y="1210" as="targetPoint" />
            <Array as="points">
              <mxPoint x="680" y="900" />
              <mxPoint x="680" y="1210" />
            </Array>
            <mxPoint as="offset" />
          </mxGeometry>
        </mxCell>
        <mxCell id="aTNGRoRgPxpWAhBZ2Oct-99" value="Yes" style="edgeStyle=orthogonalEdgeStyle;rounded=0;orthogonalLoop=1;jettySize=auto;html=1;endArrow=block;endFill=0;endSize=8;" edge="1" parent="WIyWlLk6GJQsqaUBKTNV-1" source="aTNGRoRgPxpWAhBZ2Oct-89" target="aTNGRoRgPxpWAhBZ2Oct-98">
          <mxGeometry x="-0.1111" relative="1" as="geometry">
            <mxPoint as="offset" />
          </mxGeometry>
        </mxCell>
        <mxCell id="aTNGRoRgPxpWAhBZ2Oct-89" value="100미터 이상인가?" style="rhombus;whiteSpace=wrap;html=1;shadow=0;strokeWidth=1;spacing=6;spacingTop=-4;" vertex="1" parent="WIyWlLk6GJQsqaUBKTNV-1">
          <mxGeometry x="450" y="860" width="140" height="80" as="geometry" />
        </mxCell>
        <mxCell id="aTNGRoRgPxpWAhBZ2Oct-100" value="" style="edgeStyle=orthogonalEdgeStyle;rounded=0;orthogonalLoop=1;jettySize=auto;html=1;endArrow=block;endFill=0;endSize=8;" edge="1" parent="WIyWlLk6GJQsqaUBKTNV-1" source="aTNGRoRgPxpWAhBZ2Oct-98" target="aTNGRoRgPxpWAhBZ2Oct-64">
          <mxGeometry relative="1" as="geometry" />
        </mxCell>
        <mxCell id="aTNGRoRgPxpWAhBZ2Oct-98" value="C_Location을 DB에 저장." style="whiteSpace=wrap;html=1;shadow=0;strokeWidth=1;spacing=6;spacingTop=-4;" vertex="1" parent="WIyWlLk6GJQsqaUBKTNV-1">
          <mxGeometry x="440" y="1030" width="160" height="60" as="geometry" />
        </mxCell>
      </root>
    </mxGraphModel>
  </diagram>
</mxfile>
